<svg width="1189" height="745" viewBox="0 0 1189 745" xmlns="http://www.w3.org/2000/svg" data-diagram="c4" style="font-family:system-ui, -apple-system, sans-serif"><g class="boundaries-layer"><g><rect x="190" y="40" width="463" height="665" rx="8" ry="8" fill="#131619" stroke="#47657d" stroke-width="2.5" stroke-dasharray="8 4"></rect><text x="421.5" y="64" text-anchor="middle" fill="#d6d6d6" font-size="14" font-weight="600" font-family="system-ui, -apple-system, sans-serif">@liminis/diagrams</text></g></g><g class="nodes-layer"><g><circle cx="50" cy="576" r="14" fill="#006b2d" stroke="#009848" stroke-width="1.5"></circle><rect x="30" y="594" width="40" height="30" rx="20" ry="8" fill="#006b2d" stroke="#009848" stroke-width="1.5"></rect><text x="50" y="652" text-anchor="middle" fill="#d6d6d6" font-size="14" font-weight="600" font-family="system-ui, -apple-system, sans-serif">Your tool</text><text x="50" y="666" text-anchor="middle" fill="#d6d6d6" font-size="11" font-family="system-ui, -apple-system, sans-serif" opacity="0.7">A CLI, a CI job, ...</text></g><g><rect x="284" y="555" width="329" height="110" rx="8" ry="8" fill="#16191c" stroke="#0098e0" stroke-width="2.5" stroke-dasharray="none"></rect><text x="448.5" y="598" text-anchor="middle" dominant-baseline="middle" fill="#d6d6d6" font-size="14" font-weight="600" font-family="system-ui, -apple-system, sans-serif">./core</text><text x="448.5" y="614" text-anchor="middle" fill="#b2b2b2" font-size="11" font-family="system-ui, -apple-system, sans-serif" opacity="0.8">[TypeScript]</text><text x="448.5" y="636" text-anchor="middle" fill="#b2b2b2" font-size="11" font-family="system-ui, -apple-system, sans-serif" opacity="0.7"><tspan x="448.5" dy="0">parseC4, validateC4, layoutC4Diagram — no React</tspan></text></g><g><rect x="230" y="345" width="273" height="110" rx="8" ry="8" fill="#16191c" stroke="#0098e0" stroke-width="2.5" stroke-dasharray="none"></rect><text x="366.5" y="388" text-anchor="middle" dominant-baseline="middle" fill="#d6d6d6" font-size="14" font-weight="600" font-family="system-ui, -apple-system, sans-serif">./react</text><text x="366.5" y="404" text-anchor="middle" fill="#b2b2b2" font-size="11" font-family="system-ui, -apple-system, sans-serif" opacity="0.8">[React]</text><text x="366.5" y="426" text-anchor="middle" fill="#b2b2b2" font-size="11" font-family="system-ui, -apple-system, sans-serif" opacity="0.7"><tspan x="366.5" dy="0">C4Renderer, C4InteractiveRenderer, drag</tspan></text></g><g><rect x="328.5" y="135" width="240" height="110" rx="8" ry="8" fill="#16191c" stroke="#0098e0" stroke-width="2.5" stroke-dasharray="none"></rect><text x="448.5" y="178" text-anchor="middle" dominant-baseline="middle" fill="#d6d6d6" font-size="14" font-weight="600" font-family="system-ui, -apple-system, sans-serif">./server</text><text x="448.5" y="194" text-anchor="middle" fill="#b2b2b2" font-size="11" font-family="system-ui, -apple-system, sans-serif" opacity="0.8">[react-dom/server]</text><text x="448.5" y="216" text-anchor="middle" fill="#b2b2b2" font-size="11" font-family="system-ui, -apple-system, sans-serif" opacity="0.7"><tspan x="448.5" dy="0">renderC4DiagramToSVG</tspan></text></g><g><rect x="909" y="563" width="240" height="94" rx="8" ry="8" fill="#2d2d2d" stroke="#667280" stroke-width="2.5" stroke-dasharray="8 4"></rect><text x="1029" y="604" text-anchor="middle" dominant-baseline="middle" fill="#d6d6d6" font-size="14" font-weight="600" font-family="system-ui, -apple-system, sans-serif">@dagrejs/dagre</text><text x="1029" y="624" text-anchor="middle" fill="#b2b2b2" font-size="11" font-family="system-ui, -apple-system, sans-serif" opacity="0.7"><tspan x="1029" dy="0">The only runtime dependency</tspan></text></g><g><rect x="909" y="248" width="240" height="94" rx="8" ry="8" fill="#2d2d2d" stroke="#667280" stroke-width="2.5" stroke-dasharray="8 4"></rect><text x="1029" y="289" text-anchor="middle" dominant-baseline="middle" fill="#d6d6d6" font-size="14" font-weight="600" font-family="system-ui, -apple-system, sans-serif">react / react-dom</text><text x="1029" y="309" text-anchor="middle" fill="#b2b2b2" font-size="11" font-family="system-ui, -apple-system, sans-serif" opacity="0.7"><tspan x="1029" dy="0">Optional peer dependencies</tspan></text></g></g><g class="edges-layer"><g><path d="M 110 610 L 139.54999999999998 610" fill="none" stroke="#a7a7a7" stroke-width="1.5"></path><path d="M 254.45 610 L 276 610" fill="none" stroke="#a7a7a7" stroke-width="1.5"></path><polygon points="284,610 276,614 276,606" fill="#a7a7a7"></polygon><text x="197" text-anchor="middle" fill="#bebebe" font-size="11" font-family="system-ui, -apple-system, sans-serif" transform="rotate(0, 197, 610)"><tspan x="197" y="603">Parse and lay out</tspan><tspan x="197" y="617">[no React on disk]</tspan></text></g><g><path d="M 613 610 L 718.675 610" fill="none" stroke="#a7a7a7" stroke-width="1.5"></path><path d="M 803.325 610 L 901 610" fill="none" stroke="#a7a7a7" stroke-width="1.5"></path><polygon points="909,610 901,614 901,606" fill="#a7a7a7"></polygon><text x="761" text-anchor="middle" fill="#bebebe" font-size="11" font-family="system-ui, -apple-system, sans-serif" transform="rotate(0, 761, 610)"><tspan x="761" y="614">Lays out with</tspan></text></g><g><path d="M 387.9761904761905 455 L 400.1590476190476 486.20000000000005" fill="none" stroke="#a7a7a7" stroke-width="1.5"></path><path d="M 412.2638095238095 517.2 L 424.11396745602707 547.5479654361669" fill="none" stroke="#a7a7a7" stroke-width="1.5"></path><polygon points="427.0238095238095,555 420.38795017411053,549.0028864700581 427.8399847379436,546.0930444022757" fill="#a7a7a7"></polygon><text x="407.5" text-anchor="middle" fill="#bebebe" font-size="11" font-family="system-ui, -apple-system, sans-serif" transform="rotate(0, 407.5, 505)"><tspan x="407.5" y="498">Consumes</tspan><tspan x="407.5" y="512">[LayoutResult]</tspan></text></g><g><path d="M 448.5 245 L 448.5 392.2" fill="none" stroke="#a7a7a7" stroke-width="1.5"></path><path d="M 448.5 409.19999999999993 L 448.5 547" fill="none" stroke="#a7a7a7" stroke-width="1.5"></path><polygon points="448.5,555 444.5,547 452.5,547" fill="#a7a7a7"></polygon><text x="448.5" text-anchor="middle" fill="#bebebe" font-size="11" font-family="system-ui, -apple-system, sans-serif" transform="rotate(0, 448.5, 400)"><tspan x="448.5" y="404">Parses and lays out</tspan></text></g><g><path d="M 427.0238095238095 245 L 414.8409523809524 276.2" fill="none" stroke="#a7a7a7" stroke-width="1.5"></path><path d="M 402.7361904761905 307.2 L 390.88603254397293 337.54796543616686" fill="none" stroke="#a7a7a7" stroke-width="1.5"></path><polygon points="387.9761904761905,345 387.1600152620564,336.09304440227567 394.61204982588947,339.00288647005806" fill="#a7a7a7"></polygon><text x="407.5" text-anchor="middle" fill="#bebebe" font-size="11" font-family="system-ui, -apple-system, sans-serif" transform="rotate(0, 407.5, 295)"><tspan x="407.5" y="288">Renders through</tspan><tspan x="407.5" y="302">[renderToStaticMarkup]</tspan></text></g><g><path d="M 503 378.36603773584903 L 655.1254271300585 354.25559268127375" fill="none" stroke="#a7a7a7" stroke-width="1.5"></path><path d="M 756.6581231345654 338.1636182201821 L 901.0986228790267 315.271161656909" fill="none" stroke="#a7a7a7" stroke-width="1.5"></path><polygon points="909,314.0188679245283 901.724769745217,319.2218502173956 900.4724760128364,311.32047309642235" fill="#a7a7a7"></polygon><text x="706" text-anchor="middle" fill="#bebebe" font-size="11" font-family="system-ui, -apple-system, sans-serif" transform="rotate(-9.005931656396024, 706, 346.1924528301887)"><tspan x="706" y="350.1924528301887">Needs at runtime</tspan></text></g><g><path d="M 568.5 211.70542635658916 L 688.2933467719848 233.37347357632802" fill="none" stroke="#a7a7a7" stroke-width="1.5"></path><path d="M 789.4518607356605 251.67087920283262 L 901.127742103994 271.8706510265622" fill="none" stroke="#a7a7a7" stroke-width="1.5"></path><polygon points="909,273.29457364341084 900.4157807955698,275.80677997456513 901.8397034124184,267.93452207855927" fill="#a7a7a7"></polygon><text x="738.75" text-anchor="middle" fill="#bebebe" font-size="11" font-family="system-ui, -apple-system, sans-serif" transform="rotate(10.252723872716373, 738.75, 242.5)"><tspan x="738.75" y="246.5">Needs at runtime</tspan></text></g></g></svg>